<?xml version="1.0" encoding="UTF-8" standalone="no"?>
<svg
   viewBox="-49 141 512 512"
   version="1.1"
   id="svg227"
   sodipodi:docname="iconeportfolio.svg"
   inkscape:version="1.2.1 (9c6d41e410, 2022-07-14)"
   xmlns:inkscape="http://www.inkscape.org/namespaces/inkscape"
   xmlns:sodipodi="http://sodipodi.sourceforge.net/DTD/sodipodi-0.dtd"
   xmlns="http://www.w3.org/2000/svg"
   xmlns:svg="http://www.w3.org/2000/svg">
  <defs
     id="defs231" />
  <sodipodi:namedview
     id="namedview229"
     pagecolor="#ffffff"
     bordercolor="#999999"
     borderopacity="1"
     inkscape:showpageshadow="0"
     inkscape:pageopacity="0"
     inkscape:pagecheckerboard="0"
     inkscape:deskcolor="#d1d1d1"
     showgrid="false"
     inkscape:zoom="1.5390625"
     inkscape:cx="256"
     inkscape:cy="307.9797"
     inkscape:window-width="1920"
     inkscape:window-height="986"
     inkscape:window-x="-11"
     inkscape:window-y="-11"
     inkscape:window-maximized="1"
     inkscape:current-layer="svg227" />
  <path
     fill="none"
     d="M112.1 370.3zM302.1 371.5c-.6-.7-1.1-1.3-1.7-1.8.6.5 1.2 1.1 1.7 1.8z"
     id="path179" />
  <path
     fill="none"
     d="M406.8 261H9.2C-.8 261-9 268.6-9 278v316c0 9.9 8.7 19 18.2 19h397.6c8.9 0 16.2-8.5 16.2-19V278c0-10-6.7-17-16.2-17zm-267 230.5c8.7 6.8 10.3 19.3 3.5 28.1-3.9 5.1-9.8 7.7-15.8 7.7-4.3 0-8.6-1.4-12.3-4.2L31 457.7c-5.6-4.4-8.8-11.1-8.5-18.1.3-6.9 3.9-13.4 9.8-17.3 44.3-29.1 76.8-50.8 82.1-54.6 3.5-3 8-4.8 13-4.8 11 0 20 9 20 20 0 10.6-7.3 15.7-11.7 18.7-2 1.4-4.8 3.3-8.5 5.8-6.2 4.2-15 10-26 17.3-8.7 5.8-17.7 11.8-25.7 17l64.3 49.8zm110.6-135.4-50.2 187.5c-2.4 8.9-10.5 14.8-19.3 14.8-1.7 0-3.5-.2-5.2-.7-10.7-2.9-17-13.8-14.1-24.5l50.2-187.5c2.9-10.7 13.8-17 24.5-14.1 10.6 2.8 16.9 13.8 14.1 24.5zm132.7 102.8-84.2 65.4c-3.6 2.8-8 4.2-12.3 4.2-6 0-11.9-2.7-15.8-7.7-6.8-8.7-5.2-21.3 3.5-28.1l64.1-49.8c-7.9-5.2-17-11.2-25.7-17-11-7.3-19.8-13.2-26-17.3-3.7-2.5-6.5-4.4-8.5-5.8-4.4-3-11.7-8.1-11.7-18.7 0-11 9-20 20-20 5 0 9.5 1.8 13 4.8 5.3 3.9 37.9 25.5 82.1 54.6 5.9 3.9 9.6 10.3 9.8 17.3.5 7-2.7 13.8-8.3 18.1z"
     id="path181" />
  <linearGradient
     id="a"
     x1="-30"
     x2="456"
     y1="437"
     y2="437"
     gradientUnits="userSpaceOnUse">
    <stop
       offset="0"
       stop-color="#FF884B"
       id="stop183"
       style="stop-color:#1fd9ff;stop-opacity:0.5;" />
    <stop
       offset="0.34999999"
       stop-color="#FF634C"
       id="stop185"
       style="stop-color:#09c6ff;stop-opacity:0.58843535;" />
    <stop
       offset="0.65499997"
       stop-color="#FE4A4F"
       id="stop187"
       style="stop-color:#29b7fe;stop-opacity:0.69387758;" />
    <stop
       offset="1"
       stop-color="#FE4840"
       id="stop189"
       style="stop-color:#2ca8fe;stop-opacity:0.79591835;" />
  </linearGradient>
  <path
     fill="url(#a)"
     d="M406.8 221H9.2c-32.1 0-58.2 25.6-58.2 57v316c0 32 26.7 59 58.2 59h397.6c31 0 56.2-26.5 56.2-59V278c0-32-24.7-57-56.2-57zM423 594c0 10.5-7.3 19-16.2 19H9.2C-.3 613-9 603.9-9 594V278c0-9.4 8.2-17 18.2-17h397.6c9.5 0 16.2 7 16.2 17v316z"
     id="path192" />
  <linearGradient
     id="b"
     x1="-30"
     x2="456"
     y1="445.1"
     y2="445.1"
     gradientUnits="userSpaceOnUse">
    <stop
       offset="0"
       stop-color="#FF884B"
       id="stop194"
       style="stop-color:#4be1ff;stop-opacity:0.59863943;" />
    <stop
       offset="0.34999999"
       stop-color="#FF634C"
       id="stop196"
       style="stop-color:#4cd2ff;stop-opacity:0.69727892;" />
    <stop
       offset="0.65499997"
       stop-color="#FE4A4F"
       id="stop198"
       style="stop-color:#4ac2fe;stop-opacity:0.79931974;" />
    <stop
       offset="1"
       stop-color="#FE4840"
       id="stop200"
       style="stop-color:#7bf1f0;stop-opacity:0.71088433;" />
  </linearGradient>
  <path
     fill="url(#b)"
     d="M127.4 407.4c3.7-2.5 6.5-4.4 8.5-5.8 4.4-3 11.7-8.1 11.7-18.7 0-11-9-20-20-20-5 0-9.5 1.8-13 4.8-5.3 3.9-37.9 25.5-82.1 54.6-5.9 3.9-9.6 10.3-9.8 17.3-.3 7 2.9 13.7 8.5 18.1l84.2 65.4c3.6 2.8 8 4.2 12.3 4.2 6 0 11.9-2.7 15.8-7.7 6.8-8.7 5.2-21.3-3.5-28.1l-64.1-49.8c7.9-5.2 17-11.2 25.7-17 10.9-7.2 19.6-13.1 25.8-17.3zm-13.6-38.9c-.6.6-1.2 1.2-1.7 1.8.5-.7 1.1-1.3 1.7-1.8z"
     id="path203" />
  <linearGradient
     id="c"
     x1="-30"
     x2="456"
     y1="446.4"
     y2="446.4"
     gradientUnits="userSpaceOnUse">
    <stop
       offset="0"
       stop-color="#FF884B"
       id="stop205"
       style="stop-color:#4bc3ff;stop-opacity:0.23129252;" />
    <stop
       offset="0.34999999"
       stop-color="#FF634C"
       id="stop207"
       style="stop-color:#4cc3ff;stop-opacity:0.34353742;" />
    <stop
       offset="0.65499997"
       stop-color="#FE4A4F"
       id="stop209"
       style="stop-color:#4ac2fe;stop-opacity:0.74489802;" />
    <stop
       offset="1"
       stop-color="#FE4840"
       id="stop211"
       style="stop-color:#409ffe;stop-opacity:1;" />
  </linearGradient>
  <path
     fill="url(#c)"
     d="M381.8 423.6c-44.3-29.1-76.8-50.8-82.1-54.6-3.5-3-8-4.8-13-4.8-11 0-20 9-20 20 0 10.6 7.3 15.7 11.7 18.7 2 1.4 4.8 3.3 8.5 5.8 6.2 4.2 15 10 26 17.3 8.7 5.8 17.7 11.8 25.7 17l-64.1 49.8c-8.7 6.8-10.3 19.3-3.5 28.1 3.9 5.1 9.8 7.7 15.8 7.7 4.3 0 8.6-1.4 12.3-4.2l84.2-65.4c5.6-4.4 8.8-11.1 8.5-18.1-.5-7-4.2-13.5-10-17.3zm-81.4-54c.6.5 1.1 1.2 1.7 1.8-.5-.6-1.1-1.2-1.7-1.8z"
     id="path214" />
  <linearGradient
     id="d"
     x1="-30"
     x2="456"
     y1="444.651"
     y2="444.651"
     gradientUnits="userSpaceOnUse">
    <stop
       offset="0"
       stop-color="#FF884B"
       id="stop216"
       style="stop-color:#4be1ff;stop-opacity:0.60204083;" />
    <stop
       offset="0.34999999"
       stop-color="#FF634C"
       id="stop218"
       style="stop-color:#4cd2ff;stop-opacity:0.71428573;" />
    <stop
       offset="0.65499997"
       stop-color="#FE4A4F"
       id="stop220"
       style="stop-color:#4ac2fe;stop-opacity:0.79591835;" />
    <stop
       offset="1"
       stop-color="#FE4840"
       id="stop222"
       style="stop-color:#40affe;stop-opacity:0.83673471;" />
  </linearGradient>
  <path
     fill="url(#d)"
     d="M236.2 331.6c-10.7-2.9-21.6 3.5-24.5 14.1l-50.2 187.5c-2.9 10.7 3.5 21.6 14.1 24.5 1.7.5 3.5.7 5.2.7 8.8 0 16.9-5.9 19.3-14.8l50.2-187.5c2.9-10.7-3.4-21.7-14.1-24.5z"
     id="path225" />
</svg>
